<svg id="Layer_1" data-name="Layer 1" xmlns="http://www.w3.org/2000/svg" viewBox="0 0 50 50"><defs><style>.cls-1{fill:#c8db00;}</style></defs><title>_Artboard 1 copy 6</title><path class="cls-1" d="M24.82,15.64h5L23.51,34.36h-5L14.93,21.62l-3.6,12.74h-5L0,15.64H5.26L9,29.31l3.68-13.67h4.79l3.74,13.67Zm20.26,1.17a8.73,8.73,0,0,1,3.51,3.3A9.38,9.38,0,0,1,49.85,25a9.48,9.48,0,0,1-1.27,4.89A8.68,8.68,0,0,1,45,33.19a11.59,11.59,0,0,1-5.31,1.17H31.81V15.64h8.07A11.16,11.16,0,0,1,45.08,16.81ZM42.53,29.74a4.55,4.55,0,0,0,1.71-1.89A6.34,6.34,0,0,0,44.85,25a6,6,0,0,0-.65-2.83,4.76,4.76,0,0,0-1.81-1.91,5.06,5.06,0,0,0-2.62-.68H36.7V30.41H40A4.7,4.7,0,0,0,42.53,29.74Z"/></svg>