<svg id="Layer_1" data-name="Layer 1" xmlns="http://www.w3.org/2000/svg" viewBox="0 0 50 50"><defs><style>.cls-1{fill:#2d877c;}</style></defs><title>_Artboard 1 copy 9</title><path class="cls-1" d="M42.17,0H16.71l-.18,0h0l-.19.05h0l-.16.08h0L16,.27l0,0-.15.13h0L6.85,9.36h0l-.12.15,0,0-.1.17h0s0,.11-.07.17v0a1.05,1.05,0,0,0,0,.19h0a.84.84,0,0,0,0,.18V48.7a1.46,1.46,0,0,0,1.46,1.47H42.17a1.47,1.47,0,0,0,1.47-1.47V1.46A1.47,1.47,0,0,0,42.17,0ZM15.35,5V8.93H11.41ZM40.71,47.24H9.34V11.86h7.47a1.47,1.47,0,0,0,1.47-1.46V2.93H40.71ZM18.43,23.41l5.13,5.35V15.51a1.47,1.47,0,0,1,2.93,0V28.76l5.13-5.35a1.46,1.46,0,1,1,2.11,2l-7.65,8a1.43,1.43,0,0,1-1,.45A1.47,1.47,0,0,1,24,33.42l-7.65-8a1.46,1.46,0,1,1,2.11-2ZM15.15,37.25H34.9a1.47,1.47,0,0,1,0,2.93H15.15a1.47,1.47,0,0,1,0-2.93Z"/></svg>